<svg width="11" height="17" viewBox="0 0 11 17" fill="none" xmlns="http://www.w3.org/2000/svg">
<path fill-rule="evenodd" clip-rule="evenodd" d="M5.36842 0.683594C5.73903 0.683594 6.03947 0.984034 6.03947 1.35465V14.4607L9.58381 10.802C9.84168 10.5358 10.2665 10.5291 10.5327 10.7869C10.7989 11.0448 10.8056 11.4696 10.5478 11.7358L5.8504 16.5847C5.72399 16.7152 5.55009 16.7889 5.36842 16.7889C5.18675 16.7889 5.01285 16.7152 4.88644 16.5847L0.189076 11.7358C-0.0687939 11.4696 -0.0620506 11.0448 0.204138 10.7869C0.470326 10.5291 0.89516 10.5358 1.15303 10.802L4.69737 14.4607V1.35465C4.69737 0.984034 4.99781 0.683594 5.36842 0.683594Z" fill="#FBF79F"/>
</svg>
