<svg width="16" height="20" viewBox="0 0 16 20" fill="none" xmlns="http://www.w3.org/2000/svg">
<path d="M7.99715 0C4.0032 0 0.753906 3.2493 0.753906 7.2432C0.753906 12.1998 7.2359 19.4763 7.51187 19.7836C7.77109 20.0723 8.22367 20.0718 8.48242 19.7836C8.7584 19.4763 15.2404 12.1998 15.2404 7.2432C15.2403 3.2493 11.9911 0 7.99715 0ZM7.99715 10.8875C5.98769 10.8875 4.35293 9.25266 4.35293 7.2432C4.35293 5.23375 5.98773 3.59898 7.99715 3.59898C10.0066 3.59898 11.6413 5.23379 11.6413 7.24324C11.6413 9.2527 10.0066 10.8875 7.99715 10.8875Z" fill="white"/>
</svg>
