<svg width="80" height="80" viewBox="0 0 80 80" fill="none" xmlns="http://www.w3.org/2000/svg">
<g opacity="0.4">
<path d="M22.3922 21.3906L17.8882 35.3346L3.24023 35.3106L15.1042 43.9026L10.5522 57.8226L22.3922 49.1986L34.2322 57.8226L29.6802 43.9026L41.5442 35.3106L26.8962 35.3346L22.3922 21.3906Z" fill="#FBF79F"/>
<path d="M56.5758 57.6562L54.9758 62.6162L49.7598 62.6083L53.9838 65.6722L52.3678 70.6243L56.5758 67.5523L60.7918 70.6243L59.1758 65.6722L63.3998 62.6083L58.1838 62.6162L56.5758 57.6562Z" fill="#FBF79F"/>
<path d="M68.5999 23.1914L67.6719 28.3194L62.5039 29.0074L67.0959 31.4714L66.1519 36.6074L69.9199 32.9994L74.5039 35.4794L72.2399 30.7834L76.0159 27.1914L70.8479 27.8954L68.5999 23.1914Z" fill="#FBF79F"/>
<path d="M60.5116 9.375L56.9516 13.183L52.2396 10.959L54.7596 15.519L51.1836 19.319L56.3036 18.327L58.8076 22.903L59.4476 17.727L64.5756 16.759L59.8556 14.543L60.5116 9.375Z" fill="#FBF79F"/>
<path d="M73.2871 43.418L69.3751 46.866L64.8951 44.194L66.9591 48.986L63.0391 52.418L68.2311 51.93L70.2791 56.722L71.4231 51.634L76.6151 51.162L72.1271 48.506L73.2871 43.418Z" fill="#FBF79F"/>
</g>
</svg>
