<svg width="80" height="80" viewBox="0 0 80 80" fill="none" xmlns="http://www.w3.org/2000/svg">
<g opacity="0.4">
<path d="M40.0007 4.83984L38.6647 8.98384L34.3047 8.97584L37.8327 11.5278L36.4807 15.6718L40.0007 13.1038L43.5207 15.6718L42.1687 11.5278L45.6967 8.97584L41.3367 8.98384L40.0007 4.83984Z" fill="#FBF79F"/>
<path d="M54.8718 8.82422L53.5358 12.9682L49.1758 12.9602L52.7038 15.5122L51.3518 19.6562L54.8718 17.0882L58.3918 19.6562L57.0398 15.5122L60.5678 12.9602L56.2158 12.9682L54.8718 8.82422Z" fill="#FBF79F"/>
<path d="M65.7604 19.7109L64.4245 23.8549L60.0645 23.8469L63.5924 26.4069L62.2405 30.5429L65.7604 27.9749L69.2805 30.5429L67.9285 26.4069L71.4565 23.8469L67.1044 23.8549L65.7604 19.7109Z" fill="#FBF79F"/>
<path d="M69.7448 34.582L68.4088 38.726L64.0488 38.718L67.5768 41.27L66.2248 45.414L69.7448 42.846L73.2648 45.414L71.9128 41.27L75.4408 38.718L71.0888 38.726L69.7448 34.582Z" fill="#FBF79F"/>
<path d="M65.7604 49.7031L64.4245 53.8551L60.0645 53.8471L63.5924 56.3991L62.2405 60.5431L65.7604 57.9751L69.2805 60.5431L67.9285 56.3991L71.4565 53.8471L67.1044 53.8551L65.7604 49.7031Z" fill="#FBF79F"/>
<path d="M54.8718 60.3438L53.5358 64.4878L49.1758 64.4797L52.7038 67.0398L51.3518 71.1758L54.8718 68.6157L58.3918 71.1758L57.0398 67.0398L60.5678 64.4797L56.2158 64.4878L54.8718 60.3438Z" fill="#FBF79F"/>
<path d="M40.0007 64.3281L38.6647 68.4721L34.3047 68.4641L37.8327 71.0241L36.4807 75.1601L40.0007 72.6001L43.5207 75.1601L42.1687 71.0241L45.6967 68.4641L41.3367 68.4721L40.0007 64.3281Z" fill="#FBF79F"/>
<path d="M25.1276 60.3438L23.7836 64.4878L19.4316 64.4797L22.9596 67.0398L21.6076 71.1758L25.1276 68.6157L28.6476 71.1758L27.2956 67.0398L30.8236 64.4797L26.4636 64.4878L25.1276 60.3438Z" fill="#FBF79F"/>
<path d="M14.2409 49.457L12.9049 53.601L8.54492 53.593L12.0729 56.153L10.7209 60.289L14.2409 57.729L17.7609 60.289L16.4089 56.153L19.9369 53.593L15.5849 53.601L14.2409 49.457Z" fill="#FBF79F"/>
<path d="M10.2565 34.582L8.91255 38.726L4.56055 38.718L8.08855 41.27L6.73655 45.414L10.2565 42.846L13.7765 45.414L12.4245 41.27L15.9525 38.718L11.5925 38.726L10.2565 34.582Z" fill="#FBF79F"/>
<path d="M14.2409 19.7109L12.9049 23.8549L8.54492 23.8469L12.0729 26.4069L10.7209 30.5429L14.2409 27.9749L17.7609 30.5429L16.4089 26.4069L19.9369 23.8469L15.5849 23.8549L14.2409 19.7109Z" fill="#FBF79F"/>
<path d="M25.1276 8.82422L23.7836 12.9682L19.4316 12.9602L22.9596 15.5122L21.6076 19.6562L25.1276 17.0882L28.6476 19.6562L27.2956 15.5122L30.8236 12.9602L26.4636 12.9682L25.1276 8.82422Z" fill="#FBF79F"/>
</g>
</svg>
