<svg width="80" height="80" viewBox="0 0 80 80" fill="none" xmlns="http://www.w3.org/2000/svg">
<g opacity="0.4">
<path d="M63.3049 27.2227L63.3449 37.7907L53.2969 41.0707L63.3609 44.2947L63.3769 54.8707L69.5529 46.2867L79.6169 49.5507L73.3609 41.0147L79.5689 32.4547L69.5289 35.7667L63.3049 27.2227Z" fill="#FBF79F"/>
<path d="M37.1358 65.3606C33.2079 65.3643 29.3393 64.402 25.871 62.5584C22.4026 60.7149 19.4408 58.0466 17.2466 54.7887C15.0524 51.5308 13.6931 47.7833 13.2884 43.8763C12.8837 39.9693 13.4461 36.0228 14.926 32.3843C16.4059 28.7459 18.7578 25.5272 21.7747 23.0119C24.7916 20.4966 28.3808 18.7618 32.2261 17.9604C36.0713 17.159 40.0547 17.3156 43.8252 18.4163C47.5957 19.5171 51.0376 21.5282 53.8478 24.2726C50.2175 19.2046 45.0721 15.4199 39.153 13.4637C33.2339 11.5074 26.8466 11.4806 20.9113 13.3871C14.9759 15.2935 9.79897 19.0349 6.12625 24.0722C2.45352 29.1094 0.474609 35.1825 0.474609 41.4166C0.474609 47.6506 2.45352 53.7237 6.12625 58.7609C9.79897 63.7982 14.9759 67.5396 20.9113 69.4461C26.8466 71.3526 33.2339 71.3257 39.153 69.3695C45.0721 67.4132 50.2175 63.6285 53.8478 58.5606C49.3826 62.9283 43.382 65.3699 37.1358 65.3606Z" fill="#FBF79F"/>
</g>
</svg>
