<svg width="32" height="32" viewBox="0 0 32 32" fill="none" xmlns="http://www.w3.org/2000/svg">
<circle opacity="0.6" cx="16" cy="16" r="16" fill="white"/>
<g clip-path="url(#clip0)">
<path d="M21.3338 5.33647L18.5674 5.33203C15.4594 5.33203 13.4509 7.3927 13.4509 10.5821V13.0028H10.6694C10.429 13.0028 10.2344 13.1976 10.2344 13.438V16.9453C10.2344 17.1856 10.4292 17.3802 10.6694 17.3802H13.4509V26.2302C13.4509 26.4705 13.6455 26.6651 13.8859 26.6651H17.515C17.7553 26.6651 17.95 26.4703 17.95 26.2302V17.3802H21.2022C21.4426 17.3802 21.6372 17.1856 21.6372 16.9453L21.6385 13.438C21.6385 13.3226 21.5926 13.2121 21.5111 13.1304C21.4297 13.0487 21.3187 13.0028 21.2033 13.0028H17.95V10.9508C17.95 9.96449 18.185 9.46381 19.4698 9.46381L21.3334 9.46314C21.5735 9.46314 21.7681 9.26828 21.7681 9.02815V5.77146C21.7681 5.53155 21.5737 5.33691 21.3338 5.33647Z" fill="#3A5998"/>
</g>
<defs>
<clipPath id="clip0">
<rect width="21.3333" height="21.3331" fill="white" transform="translate(5.33398 5.33203)"/>
</clipPath>
</defs>
</svg>
