<svg width="32" height="32" viewBox="0 0 32 32" fill="none" xmlns="http://www.w3.org/2000/svg">
<circle opacity="0.6" cx="16" cy="16" r="16" fill="white"/>
<g clip-path="url(#clip0)">
<path fill-rule="evenodd" clip-rule="evenodd" d="M20.312 5.33203H11.6893C8.18496 5.33203 5.33398 8.18301 5.33398 11.6873V20.31C5.33398 23.8144 8.18496 26.6654 11.6893 26.6654H20.312C23.8163 26.6654 26.6673 23.8144 26.6673 20.31V11.6873C26.6673 8.18301 23.8163 5.33203 20.312 5.33203ZM24.5212 20.31C24.5212 22.6347 22.6367 24.5192 20.312 24.5192H11.6893C9.36465 24.5192 7.48012 22.6347 7.48012 20.31V11.6873C7.48012 9.36266 9.36465 7.47816 11.6893 7.47816H20.312C22.6367 7.47816 24.5212 9.36266 24.5212 11.6873V20.31ZM16.0004 10.4812C12.958 10.4812 10.4828 12.9563 10.4828 15.9987C10.4828 19.041 12.958 21.5162 16.0004 21.5162C19.0428 21.5162 21.5179 19.0411 21.5179 15.9987C21.5179 12.9563 19.0428 10.4812 16.0004 10.4812ZM16.0004 19.3701C14.1384 19.3701 12.6289 17.8607 12.6289 15.9987C12.6289 14.1367 14.1384 12.6273 16.0004 12.6273C17.8624 12.6273 19.3718 14.1367 19.3718 15.9987C19.3718 17.8607 17.8623 19.3701 16.0004 19.3701ZM22.8513 10.5226C22.8513 11.2528 22.2593 11.8447 21.5292 11.8447C20.799 11.8447 20.207 11.2528 20.207 10.5226C20.207 9.79242 20.799 9.20049 21.5292 9.20049C22.2593 9.20049 22.8513 9.79242 22.8513 10.5226Z" fill="url(#paint0_linear)"/>
</g>
<defs>
<linearGradient id="paint0_linear" x1="21.529" y1="26.6033" x2="21.529" y2="5.49774" gradientUnits="userSpaceOnUse">
<stop stop-color="#E09B3D"/>
<stop offset="0.3" stop-color="#C74C4D"/>
<stop offset="0.6" stop-color="#C21975"/>
<stop offset="1" stop-color="#7024C4"/>
</linearGradient>
<clipPath id="clip0">
<rect width="21.3333" height="21.3333" fill="white" transform="translate(5.33398 5.33203)"/>
</clipPath>
</defs>
</svg>
