<svg width="32" height="32" viewBox="0 0 32 32" fill="none" xmlns="http://www.w3.org/2000/svg">
<circle opacity="0.6" cx="16" cy="16" r="16" fill="white"/>
<path d="M25.5954 25.5984L25.6002 25.5976V18.556C25.6002 15.1112 24.8586 12.4576 20.8314 12.4576C18.8954 12.4576 17.5962 13.52 17.0658 14.5272H17.0098V12.7792H13.1914V25.5976H17.1674V19.2504C17.1674 17.5792 17.4842 15.9632 19.5538 15.9632C21.593 15.9632 21.6234 17.8704 21.6234 19.3576V25.5984H25.5954Z" fill="#0077B5"/>
<path d="M6.7168 12.7799H10.6976V25.5983H6.7168V12.7799Z" fill="#0077B5"/>
<path d="M8.70599 6.39844C7.43319 6.39844 6.40039 7.43124 6.40039 8.70404C6.40039 9.97684 7.43319 11.0312 8.70599 11.0312C9.97879 11.0312 11.0116 9.97684 11.0116 8.70404C11.0108 7.43124 9.97799 6.39844 8.70599 6.39844Z" fill="#0077B5"/>
</svg>
