<svg width="32" height="26" viewBox="0 0 32 26" fill="none" xmlns="http://www.w3.org/2000/svg">
<g filter="url(#filter0_d)">
<path d="M13.3947 16.1585C12.71 16.1585 12.8264 15.9314 12.5902 15.3586L10.5752 9.53643L23.0459 2.69141L24.5012 3.02579L23.2922 5.93689L13.3947 16.1585Z" fill="#C8DAEA"/>
<path d="M13.3945 16.1623C13.9229 16.1623 14.1571 15.9507 14.4513 15.698C14.9054 15.3081 20.7919 10.2823 20.7919 10.2823L17.1862 9.51562L13.8398 11.3724L13.3945 16.0075V16.1623Z" fill="#A9C9DD"/>
<path d="M13.7544 11.4264L22.272 16.9549C23.2439 17.426 23.9454 17.1821 24.1876 16.1621L27.6546 1.80853C28.0096 0.558247 27.1122 -0.00885066 26.1823 0.362047L5.82311 7.26066C4.43345 7.75035 4.44155 8.43148 5.56981 8.73497L10.7942 10.1675L22.8894 3.46364C23.4604 3.15946 23.9844 3.32299 23.5543 3.65836L13.7544 11.4264Z" fill="url(#paint0_linear)"/>
</g>
<defs>
<filter id="filter0_d" x="0.75" y="0.25" width="31.75" height="25.5" filterUnits="userSpaceOnUse" color-interpolation-filters="sRGB">
<feFlood flood-opacity="0" result="BackgroundImageFix"/>
<feColorMatrix in="SourceAlpha" type="matrix" values="0 0 0 0 0 0 0 0 0 0 0 0 0 0 0 0 0 0 127 0"/>
<feOffset dy="4"/>
<feGaussianBlur stdDeviation="2"/>
<feColorMatrix type="matrix" values="0 0 0 0 0 0 0 0 0 0 0 0 0 0 0 0 0 0 0.25 0"/>
<feBlend mode="normal" in2="BackgroundImageFix" result="effect1_dropShadow"/>
<feBlend mode="normal" in="SourceGraphic" in2="effect1_dropShadow" result="shape"/>
</filter>
<linearGradient id="paint0_linear" x1="19.9114" y1="7.64986" x2="23.5426" y2="14.2631" gradientUnits="userSpaceOnUse">
<stop stop-color="#EFF7FC"/>
<stop offset="1" stop-color="white"/>
</linearGradient>
</defs>
</svg>
