<svg width="28" height="24" viewBox="0 0 28 24" fill="none" xmlns="http://www.w3.org/2000/svg">
<path d="M10.1913 21.8207C9.38401 21.8207 9.52119 21.5092 9.24278 20.7237L6.86719 12.739L21.5695 3.35156L23.2852 3.81014L21.8598 7.80251L10.1913 21.8207Z" fill="#C8DAEA"/>
<path d="M10.1914 21.8185C10.8143 21.8185 11.0905 21.5283 11.4373 21.1819C11.9727 20.647 18.9125 13.7546 18.9125 13.7546L14.6616 12.7031L10.7163 15.2496L10.1914 21.6063V21.8185Z" fill="#A9C9DD"/>
<path d="M10.6158 15.3277L20.6575 22.9096C21.8034 23.5557 22.6304 23.2212 22.9159 21.8223L27.0034 2.13742C27.4219 0.422738 26.3638 -0.354995 25.2676 0.153664L1.26514 9.61463C-0.37319 10.2862 -0.363643 11.2203 0.96651 11.6365L7.12577 13.6012L21.3854 4.40728C22.0585 3.99011 22.6764 4.21439 22.1693 4.67433L10.6158 15.3277Z" fill="url(#paint0_linear)"/>
<defs>
<linearGradient id="paint0_linear" x1="17.8745" y1="10.1484" x2="23.2294" y2="18.532" gradientUnits="userSpaceOnUse">
<stop stop-color="#EFF7FC"/>
<stop offset="1" stop-color="white"/>
</linearGradient>
</defs>
</svg>
