<svg width="32" height="32" viewBox="0 0 32 32" fill="none" xmlns="http://www.w3.org/2000/svg">
<circle opacity="0.6" cx="16" cy="16" r="16" fill="white"/>
<g clip-path="url(#clip0)">
<path d="M26.328 9.18934C25.854 9.39952 25.362 9.56534 24.8571 9.68538C25.4134 9.15673 25.8317 8.49549 26.0677 7.75742C26.1351 7.54672 25.9062 7.36452 25.7159 7.47734C25.0136 7.89396 24.257 8.2065 23.4672 8.40639C23.4213 8.41799 23.3741 8.42387 23.3266 8.42387C23.1828 8.42387 23.0429 8.37045 22.9329 8.2735C22.0926 7.53288 21.0118 7.125 19.8897 7.125C19.4042 7.125 18.914 7.20068 18.4326 7.34996C16.9413 7.81251 15.7906 9.04266 15.4296 10.5604C15.2942 11.1297 15.2575 11.6995 15.3205 12.2539C15.3278 12.3177 15.2977 12.3621 15.2791 12.383C15.2465 12.4195 15.2002 12.4405 15.1522 12.4405C15.1469 12.4405 15.1414 12.4402 15.1359 12.4397C11.8715 12.1364 8.92774 10.5637 6.84697 8.01135C6.74086 7.88116 6.53739 7.89713 6.45281 8.04219C6.04535 8.74125 5.83001 9.54079 5.83001 10.3544C5.83001 11.6012 6.33095 12.7762 7.20107 13.6328C6.83516 13.5461 6.48101 13.4095 6.15202 13.2267C5.99287 13.1383 5.79704 13.252 5.7948 13.434C5.77202 15.2863 6.85649 16.9345 8.48106 17.6766C8.44834 17.6774 8.41562 17.6778 8.38286 17.6778C8.12534 17.6778 7.8646 17.6529 7.60797 17.6039C7.42873 17.5696 7.27815 17.7397 7.33381 17.9135C7.86111 19.5597 9.27857 20.7732 10.9748 21.0487C9.56703 21.9937 7.92764 22.4922 6.22136 22.4922L5.68942 22.4919C5.52553 22.4919 5.38692 22.5987 5.34515 22.7575C5.30401 22.9138 5.37979 23.0787 5.51955 23.16C7.44226 24.279 9.63538 24.8704 11.8628 24.8704C13.8125 24.8704 15.6363 24.4835 17.2835 23.7204C18.7936 23.0209 20.128 22.021 21.2497 20.7484C22.2947 19.5629 23.1118 18.1944 23.6783 16.6809C24.2184 15.2382 24.5038 13.6989 24.5038 12.2292V12.1592C24.5038 11.9232 24.6105 11.7011 24.7967 11.55C25.5033 10.9763 26.1186 10.301 26.6255 9.54277C26.7593 9.34257 26.5482 9.09166 26.328 9.18934Z" fill="#76A9EA"/>
</g>
<defs>
<clipPath id="clip0">
<rect width="21.3333" height="21.3333" fill="white" transform="translate(5.33398 5.33203)"/>
</clipPath>
</defs>
</svg>
