<svg width="32" height="32" viewBox="0 0 32 32" fill="none" xmlns="http://www.w3.org/2000/svg">
<circle opacity="0.6" cx="16" cy="16" r="16" fill="white"/>
<g clip-path="url(#clip0)">
<path d="M23.3038 14.2847C23.3294 11.277 20.7677 8.51971 17.5933 8.13843C17.5302 8.13094 17.4614 8.11955 17.3886 8.10749C17.2315 8.08145 17.069 8.05469 16.905 8.05469C16.2544 8.05469 16.0805 8.5117 16.0347 8.78426C15.9902 9.04927 16.0326 9.27181 16.1607 9.44599C16.3762 9.73896 16.7553 9.79096 17.0597 9.83264C17.149 9.84496 17.2332 9.85642 17.3037 9.87226C20.1557 10.5095 21.116 11.5115 21.5854 14.3393C21.5968 14.4084 21.602 14.4935 21.6075 14.5838C21.628 14.9218 21.6706 15.6251 22.4267 15.6251H22.4268C22.4897 15.6251 22.5574 15.6197 22.6278 15.6089C23.3319 15.5019 23.3098 14.8591 23.2992 14.5502C23.2962 14.4632 23.2934 14.3809 23.3007 14.3262C23.3027 14.3124 23.3037 14.2986 23.3038 14.2847Z" fill="#665CAC"/>
<path d="M16.7196 7.03392C16.8041 7.04002 16.8841 7.04585 16.9506 7.05605C21.634 7.77628 23.7877 9.99521 24.3846 14.7152C24.3947 14.7954 24.3963 14.8932 24.398 14.9969C24.404 15.3656 24.4162 16.1328 25.2401 16.1487L25.2656 16.1489C25.524 16.1489 25.7295 16.071 25.8765 15.9172C26.133 15.6489 26.1151 15.2504 26.1007 14.9301C26.0972 14.8516 26.0938 14.7776 26.0947 14.7128C26.1542 9.88549 21.9757 5.50813 17.1527 5.34535C17.1327 5.34469 17.1136 5.34575 17.0943 5.34846C17.0849 5.34985 17.0673 5.35158 17.0372 5.35158C16.9891 5.35158 16.93 5.3474 16.8672 5.34316C16.7914 5.33799 16.7054 5.33203 16.6182 5.33203C15.8501 5.33203 15.7041 5.87795 15.6854 6.20338C15.6424 6.95548 16.3699 7.00842 16.7196 7.03392Z" fill="#665CAC"/>
<path d="M24.159 20.8162C24.0594 20.7401 23.9565 20.6614 23.8601 20.5838C23.3487 20.1723 22.8047 19.793 22.2786 19.4261C22.1695 19.3501 22.0603 19.274 21.9515 19.1976C21.2776 18.7243 20.6717 18.4942 20.0993 18.4942C19.3283 18.4942 18.6561 18.9202 18.1013 19.7603C17.8555 20.1327 17.5573 20.3137 17.1898 20.3137C16.9725 20.3137 16.7256 20.2517 16.456 20.1293C14.2807 19.1429 12.7274 17.6305 11.8392 15.6341C11.4098 14.6692 11.549 14.0385 12.3047 13.5252C12.7338 13.2339 13.5325 12.6917 13.4759 11.6534C13.4119 10.4743 10.8103 6.92658 9.71414 6.52363C9.25004 6.35297 8.76242 6.35138 8.26222 6.51966C7.0021 6.94327 6.09782 7.68722 5.6469 8.67094C5.21116 9.62146 5.23084 10.7375 5.70381 11.8986C7.07113 15.2553 8.99351 18.1819 11.4178 20.597C13.7906 22.9612 16.7071 24.8977 20.0861 26.3527C20.3907 26.4837 20.7102 26.5552 20.9435 26.6074C21.023 26.6253 21.0916 26.6405 21.1416 26.6542C21.1691 26.6617 21.1975 26.6657 21.2259 26.666L21.2526 26.6661C21.2527 26.6661 21.2526 26.6661 21.2527 26.6661C22.842 26.6661 24.7502 25.2139 25.3363 23.5582C25.8498 22.1085 24.9123 21.3919 24.159 20.8162Z" fill="#665CAC"/>
<path d="M17.4235 10.8678C17.1514 10.8747 16.5852 10.8887 16.3865 11.4654C16.2935 11.7349 16.3047 11.9689 16.4196 12.1609C16.5883 12.4427 16.9115 12.529 17.2054 12.5764C18.2715 12.7474 18.819 13.3369 18.9285 14.4314C18.9794 14.9418 19.3231 15.2981 19.7643 15.2981H19.7644C19.797 15.2981 19.8303 15.2962 19.8635 15.2922C20.3942 15.229 20.6514 14.8391 20.6282 14.1334C20.6366 13.3969 20.2512 12.5607 19.5956 11.8947C18.9378 11.2266 18.1448 10.8503 17.4235 10.8678Z" fill="#665CAC"/>
</g>
<defs>
<clipPath id="clip0">
<rect width="21.3333" height="21.3333" fill="white" transform="translate(5.33398 5.33203)"/>
</clipPath>
</defs>
</svg>
