<svg width="32" height="32" viewBox="0 0 32 32" fill="none" xmlns="http://www.w3.org/2000/svg">
<circle opacity="0.6" cx="16" cy="16" r="16" fill="white"/>
<g clip-path="url(#clip0)">
<path d="M23.0362 17.9798C22.6913 17.5442 22.79 17.3504 23.0362 16.9611C23.0407 16.9566 25.8878 13.0224 26.1811 11.6882L26.1829 11.6873C26.3287 11.2011 26.1829 10.8438 25.478 10.8438H23.1455C22.5518 10.8438 22.278 11.1504 22.1313 11.4935C22.1313 11.4935 20.9438 14.3362 19.2638 16.1789C18.7215 16.7113 18.4709 16.882 18.1749 16.882C18.0291 16.882 17.8024 16.7113 17.8024 16.2251V11.6873C17.8024 11.1042 17.6362 10.8438 17.1447 10.8438H13.4771C13.1047 10.8438 12.8833 11.1158 12.8833 11.3691C12.8833 11.922 13.7233 12.0491 13.8104 13.6046V16.9798C13.8104 17.7193 13.6762 17.8553 13.3784 17.8553C12.5855 17.8553 10.6611 15.0011 9.52065 11.7344C9.29043 11.1006 9.06554 10.8446 8.46732 10.8446H6.13398C5.46821 10.8446 5.33398 11.1513 5.33398 11.4944C5.33398 12.1006 6.12687 15.1149 9.0211 19.0971C10.95 21.8153 13.6664 23.2882 16.1375 23.2882C17.6229 23.2882 17.8042 22.9611 17.8042 22.3984C17.8042 19.8011 17.67 19.5557 18.414 19.5557C18.7589 19.5557 19.3527 19.7264 20.7393 21.0375C22.3242 22.5922 22.5847 23.2882 23.4718 23.2882H25.8042C26.4691 23.2882 26.806 22.9611 26.6122 22.3158C26.1687 20.9584 23.1713 18.1664 23.0362 17.9798Z" fill="#4B729F"/>
</g>
<defs>
<clipPath id="clip0">
<rect width="21.3333" height="21.3333" fill="white" transform="translate(5.33398 5.33203)"/>
</clipPath>
</defs>
</svg>
